<svg width="110" height="27" viewBox="0 0 110 27" fill="none" xmlns="http://www.w3.org/2000/svg">
<mask id="mask0_209_171" style="mask-type:alpha" maskUnits="userSpaceOnUse" x="0" y="6" width="21" height="21">
<path fill-rule="evenodd" clip-rule="evenodd" d="M0 6.63037H20.6538V26.3563H0V6.63037Z" fill="white"/>
</mask>
<g mask="url(#mask0_209_171)">
<path fill-rule="evenodd" clip-rule="evenodd" d="M10.3267 7.33478C12.9713 6.24888 17.1571 6.01091 19.4038 9.64977C21.8018 13.5325 20.3645 17.356 18.3173 20.1071C16.2988 22.8199 13.3004 24.9659 11.0719 26.1355C10.8076 26.2741 10.616 26.3607 10.3074 26.3561C10.0132 26.3522 9.84635 26.2741 9.58174 26.1355C7.35333 24.9659 4.35491 22.8199 2.33641 20.1071C0.289186 17.356 -1.14784 13.5325 1.24985 9.64977C3.4963 6.01123 7.6821 6.2492 10.3267 7.33478ZM10.3267 21.5405C11.6259 20.7677 12.9908 19.8639 14.4868 18.1272C16.3868 15.922 17.0908 13.7257 15.8331 11.9628C14.9161 10.6772 12.8439 10.4608 11.1853 11.6333C10.8324 11.883 10.565 12.0154 10.3267 11.9942C10.0887 12.0154 9.8213 11.883 9.46838 11.6333C7.80983 10.4608 5.73755 10.6772 4.82058 11.9628C3.56321 13.7257 4.26721 15.922 6.16685 18.1272C7.66285 19.8639 9.02808 20.7677 10.3267 21.5405Z" fill="#F9B601"/>
</g>
<path fill-rule="evenodd" clip-rule="evenodd" d="M31.0115 6.80065C31.5638 6.55632 32.1949 6.43237 32.9033 6.43237C33.7404 6.43237 34.5335 6.60089 35.2837 6.93631C36.0341 7.27173 36.6531 7.74118 37.1441 8.34206L37.2085 8.42112L37.2874 8.35735C37.4827 8.19892 37.6257 8.08375 37.7126 8.01576C37.8207 7.92531 37.9197 7.84496 38.006 7.77729C39.1203 6.88231 40.4505 6.43237 42.001 6.43237C42.9287 6.43237 43.7791 6.57942 44.552 6.87092C45.3246 7.13964 45.9897 7.5437 46.5451 8.0792C47.1005 8.59224 47.5289 9.21753 47.8286 9.95505C48.1273 10.6688 48.2778 11.463 48.2778 12.3384V22.6943C48.2778 23.8268 48.0927 24.6037 47.7448 25.0523C47.4011 25.4945 46.8273 25.729 45.9934 25.729C45.2551 25.729 44.6869 25.4775 44.2732 24.9821C43.8794 24.4837 43.6763 23.7728 43.6763 22.8307V13.1589C43.6763 12.4289 43.4617 11.8403 43.0227 11.4064C42.6056 10.9704 42.0321 10.7599 41.3141 10.7599C40.5518 10.7599 39.9434 10.9837 39.5044 11.4425C39.0886 11.9009 38.8858 12.5356 38.8858 13.3297V23.0356C38.8858 23.9072 38.6833 24.5725 38.2901 25.0488C37.8995 25.499 37.3525 25.729 36.6341 25.729C35.8927 25.729 35.322 25.4974 34.9092 25.0455C34.5176 24.5692 34.3164 23.9153 34.3164 23.0701V13.0903C34.3164 12.3644 34.1254 11.786 33.7298 11.3728C33.3339 10.96 32.7809 10.7599 32.085 10.7599C31.3411 10.7599 30.7339 11.0088 30.2751 11.5111C29.8377 11.9926 29.6246 12.6491 29.6246 13.4663V23.0356C29.6246 24.8578 28.8735 25.729 27.3726 25.729C25.8269 25.729 25.0555 24.8448 25.0555 23.0015V9.09162C25.0555 8.24186 25.249 7.61007 25.6185 7.18161C25.9879 6.732 26.5135 6.50069 27.2091 6.50069C27.7446 6.50069 28.1439 6.63636 28.4025 6.82342C28.6636 7.01211 28.9062 7.33321 29.1433 7.87261L29.2009 8.00307L29.3059 7.91002C29.8878 7.39242 30.4579 7.02317 31.0115 6.80065Z" fill="#FEFEFE"/>
<path fill-rule="evenodd" clip-rule="evenodd" d="M54.4041 25.0209C54.0096 25.4918 53.4983 25.729 52.861 25.729C52.2437 25.729 51.7312 25.5037 51.3155 25.0521C50.9202 24.6006 50.7222 24.0319 50.7222 23.3352V3.27398C50.7222 1.4981 51.4525 0.643311 52.9231 0.643311C54.3094 0.643311 55 1.46302 55 3.17196V23.2676C55 23.9643 54.8006 24.5462 54.4041 25.0209Z" fill="#FEFEFE"/>
<path fill-rule="evenodd" clip-rule="evenodd" d="M72.4547 6.80064C73.1357 6.55535 73.8715 6.43237 74.6623 6.43237C75.625 6.43237 76.5012 6.6013 77.2889 6.93527C78.0967 7.2469 78.778 7.72585 79.3294 8.36984C79.8165 8.90153 80.1561 9.51283 80.3463 10.1976C80.5581 10.8629 80.6667 11.7137 80.6667 12.7493V23.1518C80.6667 23.9217 80.4459 24.5407 80.0123 25.0161C79.6 25.4899 79.065 25.729 78.3985 25.729C77.7531 25.729 77.206 25.5022 76.7489 25.0462C76.3144 24.5919 76.0979 24.0314 76.0979 23.3557V13.9395C76.0979 13.2599 76.0762 12.7871 76.0311 12.5266C75.9856 12.2399 75.8832 11.9668 75.7246 11.7063C75.539 11.3901 75.2613 11.1506 74.8982 10.9843C74.559 10.7963 74.1758 10.7037 73.7524 10.7037C73.3049 10.7037 72.8892 10.7969 72.5064 10.9859C72.1247 11.1736 71.8062 11.4354 71.5575 11.7671C71.3986 12.005 71.2826 12.2726 71.2146 12.5571C71.1703 12.8331 71.1471 13.2965 71.1471 13.9395V23.2197C71.1471 24.0404 70.9464 24.6559 70.5586 25.0831C70.1711 25.5093 69.6169 25.729 68.8793 25.729C68.2116 25.729 67.6645 25.5006 67.2303 25.0472C66.8189 24.5718 66.6111 23.966 66.6111 23.2197V8.84005C66.6111 8.08829 66.801 7.51744 67.1672 7.11261C67.534 6.70841 68.0455 6.50033 68.7166 6.50033C69.4356 6.50033 69.9159 6.76375 70.2376 7.14917C70.4875 7.44819 70.7491 7.92034 70.7491 7.92034L70.8369 7.82876C71.2575 7.38865 71.7957 7.04497 72.4547 6.80064Z" fill="#FEFEFE"/>
<path fill-rule="evenodd" clip-rule="evenodd" d="M107.072 6.43237C107.965 6.43237 108.672 6.66464 109.205 7.11982C109.734 7.57241 110 8.1749 110 8.93729C110 9.57079 109.818 10.0744 109.462 10.4579C109.108 10.84 108.626 11.0352 108.006 11.0352H107.811L106.411 10.8995H106.206C105.416 10.8995 104.843 11.2232 104.511 11.8744C104.372 12.1571 104.28 12.4624 104.234 12.7903C104.189 13.0878 104.166 13.5679 104.166 14.2317V23.4619C104.166 24.1635 103.962 24.7108 103.563 25.1165C103.165 25.5213 102.617 25.729 101.905 25.729C101.146 25.729 100.577 25.521 100.181 25.1175C99.8053 24.714 99.6111 24.1341 99.6111 23.3604V8.76769C99.6111 8.04115 99.8063 7.48131 100.183 7.07621C100.56 6.65043 101.074 6.43237 101.738 6.43237C102.297 6.43237 102.834 6.51314 103.214 6.85621C103.662 7.26035 103.782 7.9507 103.782 7.9507L103.911 7.82827C104.895 6.89336 105.948 6.43237 107.072 6.43237Z" fill="#FEFEFE"/>
<mask id="mask1_209_171" style="mask-type:alpha" maskUnits="userSpaceOnUse" x="58" y="0" width="5" height="6">
<path fill-rule="evenodd" clip-rule="evenodd" d="M58.3294 0.300781H62.9069V5.11941H58.3294V0.300781Z" fill="white"/>
</mask>
<g mask="url(#mask1_209_171)">
<path fill-rule="evenodd" clip-rule="evenodd" d="M59.0034 0.980988C59.4553 0.527195 59.9965 0.300781 60.6345 0.300781C61.2942 0.300781 61.8356 0.528803 62.264 0.980023C62.6909 1.40744 62.9069 1.9648 62.9069 2.66012C62.9069 3.35319 62.6814 3.93434 62.2304 4.40872C61.8005 4.88277 61.27 5.11948 60.6345 5.11948C59.976 5.11948 59.4251 4.88374 58.9741 4.40872C58.5439 3.93466 58.3294 3.3548 58.3294 2.66012C58.3294 1.9902 58.5533 1.43285 59.0034 0.980988Z" fill="#FEFEFE"/>
</g>
<path fill-rule="evenodd" clip-rule="evenodd" d="M62.3482 25.0095C61.9541 25.488 61.4426 25.729 60.8052 25.729C60.1881 25.729 59.6759 25.5001 59.2599 25.0412C58.8649 24.5823 58.6667 24.0044 58.6667 23.2963V9.10578C58.6667 7.30105 59.3969 6.43237 60.8674 6.43237C62.2539 6.43237 62.9444 7.2654 62.9444 9.00275V23.2277C62.9444 23.9357 62.745 24.5271 62.3482 25.0095Z" fill="#FEFEFE"/>
<path fill-rule="evenodd" clip-rule="evenodd" d="M90.7715 25.3234C90.13 25.5901 89.3808 25.7251 88.5232 25.7251C86.6157 25.7251 85.1413 25.1848 84.0862 24.1157C83.0322 23.0471 82.5 21.5632 82.5 19.65C82.5 17.5353 83.1564 15.9893 84.4571 14.9891C85.785 13.9609 87.8853 13.4375 90.7761 13.4375H91.4427H91.8554H92.1725C92.2768 13.4375 92.3351 13.3536 92.3628 13.2716C92.3897 13.1906 92.4006 13.0813 92.4006 12.9525C92.4006 12.1182 92.2191 11.492 91.8303 11.0975C91.443 10.6808 90.8304 10.486 90.0149 10.486C88.9522 10.486 87.8439 10.9179 86.6897 11.7685C86.2025 12.1114 85.8711 12.3221 85.6895 12.4087C85.5159 12.4923 85.2978 12.5358 85.0322 12.5358C84.4849 12.5358 84.0463 12.3514 83.708 11.9871C83.3911 11.601 83.2298 11.1056 83.2298 10.4925C83.2298 9.97495 83.408 9.47598 83.7774 8.99067C84.1701 8.50048 84.6773 8.06526 85.3038 7.68306C85.9511 7.30086 86.6933 6.99705 87.5319 6.77131C88.3704 6.54557 89.2401 6.43237 90.1414 6.43237C91.0854 6.43237 91.9433 6.55695 92.7154 6.80384C93.5095 7.0517 94.187 7.40007 94.7465 7.84667C95.3276 8.29393 95.7726 8.82933 96.0822 9.45126C96.3906 10.0488 96.5456 10.7146 96.5456 11.4494L96.5556 23.2664C96.5556 24.0021 96.3505 24.5935 95.9481 25.0476C95.5651 25.5004 95.0682 25.729 94.4495 25.729C93.8496 25.729 93.3418 25.5124 92.9174 25.0765C92.6574 24.7968 92.4813 24.4751 92.3891 24.1088L92.3499 24.1573C91.9384 24.6667 91.4131 25.056 90.7715 25.3234ZM89.6294 17.3203C88.7933 17.3665 88.1339 17.5757 87.6678 17.9579C87.2168 18.3462 86.9939 18.8927 86.9939 19.5816C86.9939 20.2215 87.1836 20.7331 87.5684 21.0997C87.9735 21.4627 88.529 21.6384 89.221 21.6384C90.1278 21.6384 90.8724 21.3824 91.4449 20.8606C92.0188 20.3379 92.3055 19.646 92.3055 18.7961V17.8047C92.3055 17.6528 92.3024 17.5389 92.2973 17.4631C92.294 17.4189 92.2894 17.3857 92.2849 17.3633C92.2743 17.3148 92.2529 17.2868 92.2308 17.2709C92.2006 17.2455 92.1647 17.2345 92.1366 17.2283C92.1049 17.2218 92.0641 17.2175 92.0133 17.2175L91.7569 17.2179L91.2464 17.252L90.5504 17.2858L89.6294 17.3203Z" fill="#FEFEFE"/>
</svg>